<mxfile host="drawio-plugin" modified="2023-09-13T19:09:52.955Z" agent="5.0 (Windows NT 10.0; Win64; x64) AppleWebKit/537.36 (KHTML, like Gecko) Chrome/111.0.0.0 Safari/537.36" version="20.5.3" etag="erUSzwkOR8ndTQlimMIl" type="embed"><diagram id="6HTmboLtw5Au9QVaDgkz" name="Page-1"><mxGraphModel dx="584" dy="630" grid="1" gridSize="10" guides="1" tooltips="1" connect="1" arrows="1" fold="1" page="1" pageScale="1" pageWidth="850" pageHeight="1100" math="0" shadow="0"><root><mxCell id="0"/><mxCell id="1" parent="0"/><mxCell id="2" value="SmartPhone" style="html=1;" vertex="1" parent="1"><mxGeometry x="370" y="340" width="110" height="50" as="geometry"/></mxCell><mxCell id="3" value="AndroidCamera" style="html=1;" vertex="1" parent="1"><mxGeometry x="200" y="580" width="110" height="50" as="geometry"/></mxCell><mxCell id="4" value="AndroidPhone" style="html=1;" vertex="1" parent="1"><mxGeometry x="540" y="580" width="110" height="50" as="geometry"/></mxCell><mxCell id="5" value="«interface»&lt;br&gt;&lt;b&gt;ICamera&lt;/b&gt;" style="html=1;" vertex="1" parent="1"><mxGeometry x="200" y="460" width="110" height="50" as="geometry"/></mxCell><mxCell id="6" value="«interface»&lt;br&gt;&lt;b&gt;IPhone&lt;/b&gt;" style="html=1;" vertex="1" parent="1"><mxGeometry x="540" y="460" width="110" height="50" as="geometry"/></mxCell><mxCell id="7" value="" style="endArrow=diamondThin;endFill=0;endSize=24;html=1;rounded=0;entryX=0;entryY=0.5;entryDx=0;entryDy=0;exitX=0.5;exitY=0;exitDx=0;exitDy=0;edgeStyle=orthogonalEdgeStyle;" edge="1" parent="1" source="5" target="2"><mxGeometry width="160" relative="1" as="geometry"><mxPoint x="190" y="400" as="sourcePoint"/><mxPoint x="350" y="400" as="targetPoint"/></mxGeometry></mxCell><mxCell id="11" value="1" style="edgeLabel;html=1;align=center;verticalAlign=middle;resizable=0;points=[];" vertex="1" connectable="0" parent="7"><mxGeometry x="0.6286" y="1" relative="1" as="geometry"><mxPoint as="offset"/></mxGeometry></mxCell><mxCell id="12" value="0..*" style="edgeLabel;html=1;align=center;verticalAlign=middle;resizable=0;points=[];" vertex="1" connectable="0" parent="7"><mxGeometry x="-0.7302" y="3" relative="1" as="geometry"><mxPoint x="2" as="offset"/></mxGeometry></mxCell><mxCell id="8" value="" style="endArrow=diamondThin;endFill=0;endSize=24;html=1;rounded=0;entryX=1;entryY=0.5;entryDx=0;entryDy=0;exitX=0.5;exitY=0;exitDx=0;exitDy=0;edgeStyle=orthogonalEdgeStyle;" edge="1" parent="1" source="6" target="2"><mxGeometry width="160" relative="1" as="geometry"><mxPoint x="265" y="470" as="sourcePoint"/><mxPoint x="380" y="375" as="targetPoint"/></mxGeometry></mxCell><mxCell id="13" value="1" style="edgeLabel;html=1;align=center;verticalAlign=middle;resizable=0;points=[];" vertex="1" connectable="0" parent="8"><mxGeometry x="0.65" y="-1" relative="1" as="geometry"><mxPoint as="offset"/></mxGeometry></mxCell><mxCell id="14" value="1" style="edgeLabel;html=1;align=center;verticalAlign=middle;resizable=0;points=[];" vertex="1" connectable="0" parent="8"><mxGeometry x="-0.7879" y="2" relative="1" as="geometry"><mxPoint x="1" as="offset"/></mxGeometry></mxCell><mxCell id="9" value="" style="endArrow=block;dashed=1;endFill=0;endSize=12;html=1;rounded=0;entryX=0.5;entryY=1;entryDx=0;entryDy=0;" edge="1" parent="1" source="3" target="5"><mxGeometry width="160" relative="1" as="geometry"><mxPoint x="160" y="760" as="sourcePoint"/><mxPoint x="320" y="760" as="targetPoint"/></mxGeometry></mxCell><mxCell id="10" value="" style="endArrow=block;dashed=1;endFill=0;endSize=12;html=1;rounded=0;entryX=0.5;entryY=1;entryDx=0;entryDy=0;exitX=0.5;exitY=0;exitDx=0;exitDy=0;" edge="1" parent="1" source="4" target="6"><mxGeometry width="160" relative="1" as="geometry"><mxPoint x="594.5" y="630" as="sourcePoint"/><mxPoint x="594.5" y="530" as="targetPoint"/></mxGeometry></mxCell></root></mxGraphModel></diagram></mxfile>